<svg xmlns="http://www.w3.org/2000/svg" width="512" height="512" id="dribble"><switch><g><path fill="#F06898" d="M507 256.879c0 138.066-111.934 250-250 250-138.067 0-250-111.934-250-250 0-138.067 111.933-250 250-250 138.066 0 250 111.933 250 250zm0 0"></path><path fill="#F2F2F2" d="M257 98.118c-87.671 0-158.978 71.221-158.978 158.761S169.329 415.64 257 415.64c87.649 0 158.956-71.221 158.956-158.761S344.649 98.118 257 98.118zm104.6 74.917c18.126 22.478 29.159 50.877 29.659 81.798-6.027-1.24-31.596-6.006-62.125-6.006-9.856 0-20.215.503-30.616 1.784a452.428 452.428 0 0 0-2.676-6.416c-2.698-6.335-5.614-12.624-8.617-18.825 47.001-19.369 69.674-46.239 74.375-52.335zM257 122.968c33.858 0 64.823 12.577 88.476 33.317-3.742 5.092-24.044 30.483-69.37 47.605-20.977-38.357-43.934-70.11-49.396-77.462a133.685 133.685 0 0 1 30.29-3.46zm-57.686 13.012c4.613 6.378 27.613 38.472 49.134 76.505-57.751 15.169-109.017 16.173-121.398 16.173h-1.306c8.878-40.976 36.557-75.03 73.57-92.678zM122.7 257.097c0-1.11 0-2.217.038-3.311h3.528c16.668 0 74.528-1.371 134.15-19.056a446.037 446.037 0 0 1 10.249 21.431c-1.507.433-2.98.868-4.461 1.346-67.129 21.676-104.012 79.079-109.691 88.457-21.042-23.696-33.813-54.814-33.813-88.867zM257 391.203c-30.812 0-59.23-10.423-81.926-27.918 3.852-7.529 31.683-57.664 105.252-83.275a.407.407 0 0 0 .152-.044c18.431 48.024 26.243 88.324 28.397 100.814-15.971 6.724-33.488 10.423-51.875 10.423zm76.072-23.632c-1.806-10.336-9.052-48.11-25.741-94.177 9.356-1.458 18.474-2.045 27.025-2.045 28.07 0 50.026 6.158 55.118 7.703-6.049 36.6-27.009 68.239-56.402 88.519zm0 0"></path></g></switch></svg>